<svg width="250" height="250" viewBox="0 0 250 250" fill="none" xmlns="http://www.w3.org/2000/svg">
<g clip-path="url(#clip0_11357_2)">
<path fill-rule="evenodd" clip-rule="evenodd" d="M1.17817 23.1093C0 27.3069 0 32.4377 0 42.6994V207.301C0 217.562 0 222.693 1.17817 226.891C4.16317 237.526 12.4742 245.837 23.1093 248.822C27.3069 250 32.4377 250 42.6995 250H86.25C155.286 250 211.25 194.036 211.25 125C211.25 123.448 211.222 121.902 211.166 120.364C203.866 123.353 195.875 125 187.5 125C152.982 125 125 97.0178 125 62.5C125 43.7122 133.29 26.8605 146.411 15.4034C128.564 5.58522 108.059 0 86.2499 0H42.6995C32.4377 0 27.3069 0 23.1093 1.17817C12.4742 4.16317 4.16317 12.4742 1.17817 23.1093Z" fill="#005667"/>
<circle cx="187.5" cy="62.5" r="62.5" fill="#CA6463"/>
<path fill-rule="evenodd" clip-rule="evenodd" d="M211.165 120.364C233.949 111.036 250 88.6423 250 62.5C250 27.9822 222.017 0 187.5 0C171.77 0 157.397 5.81098 146.411 15.4034C183.789 35.9653 209.515 75.0928 211.165 120.364Z" fill="#FD6862"/>
</g>
<defs>
<clipPath id="clip0_11357_2">
<rect width="250" height="250" fill="white"/>
</clipPath>
</defs>
</svg>
